<svg width="100" height="27" viewBox="0 0 100 27" fill="none" xmlns="http://www.w3.org/2000/svg">
<title>Institut für Ethik und Management</title>
<path d="M2.56836 9.48828V19H1.52344V9.48828H2.56836ZM2.56836 5.28906V6.76367H1.52344V5.28906H2.56836ZM33.0113 13.1406C33.0113 12.2943 32.7672 11.5977 32.2789 11.0508C31.7906 10.5039 31.1461 10.2305 30.3453 10.2305C29.5445 10.2305 28.8772 10.5234 28.3434 11.1094C27.816 11.6953 27.51 12.444 27.4254 13.3555L27.4449 13.4043H33.0113V13.1406ZM30.443 19.2051C29.2451 19.2051 28.2522 18.7656 27.4645 17.8867C26.6832 17.0078 26.2926 15.8945 26.2926 14.5469V14.0586C26.2926 12.7044 26.6799 11.5781 27.4547 10.6797C28.2294 9.78125 29.1897 9.33203 30.3355 9.33203C31.4814 9.33203 32.3863 9.69987 33.0504 10.4355C33.721 11.1647 34.0562 12.151 34.0562 13.3945V14.293H27.3473V14.5469C27.3473 15.6406 27.6305 16.5423 28.1969 17.252C28.7698 17.9616 29.5185 18.3164 30.443 18.3164C31.6799 18.3164 32.6337 17.9648 33.3043 17.2617L33.7535 17.9844C32.9592 18.7982 31.8557 19.2051 30.443 19.2051ZM51.4555 12.9551L51.4652 13.2969V19H50.4008V13.4336C50.4008 12.3203 50.199 11.5098 49.7953 11.002C49.3982 10.4876 48.8155 10.2305 48.0473 10.2305C46.641 10.2305 45.7458 10.9271 45.3617 12.3203V19H44.2973V9.48828H45.2445L45.3422 11.0605C45.9867 9.89518 46.9991 9.3125 48.3793 9.3125C49.8702 9.3125 50.8272 10.0254 51.2504 11.4512C51.8624 10.0254 52.9171 9.3125 54.4145 9.3125C56.5303 9.3125 57.5883 10.6927 57.5883 13.4531V19H56.5336V13.4336C56.5336 12.2943 56.335 11.4772 55.9379 10.9824C55.5473 10.4811 54.9581 10.2305 54.1703 10.2305C53.3891 10.2305 52.7706 10.4746 52.3148 10.9629C51.8591 11.4447 51.5727 12.1087 51.4555 12.9551Z" fill="#1D1D1D"/>
<rect x="12" y="1.2169" width="1.22419" height="26.1557" transform="rotate(-10.2057 12 1.2169)" fill="#1D1D1D"/>
</svg>
